<svg xmlns="http://www.w3.org/2000/svg" viewBox="0 0 160 160">
  <defs>
    <style>
      .cls-1 {
        fill: #cf2f4c;
      }
    </style>
  </defs>
  <title>FinData Logo</title>
   <g>
    <g
       id="g17"
       transform="scale(0.25)"
       style="fill:#ffffff;stroke:#575555;stroke-opacity:1">
      <g
         fill="#231f20"
         id="g15"
         style="fill:#ffffff;stroke:#575555;stroke-opacity:1">
        <path
           d="m 299.8,143.4 c 3.2,9.3 11.8,7.7 12.7,7.5 5.6,-1.4 8.9,-7.1 7.5,-12.7 L 296.5,46.3 c -1.4,-5.6 -7.1,-9 -12.7,-7.5 l -91.9,23.5 c -5.6,1.4 -8.9,7.1 -7.5,12.7 1.4,5.6 7.1,9 12.7,7.5 L 268.7,64.2 177.4,199 146.3,123.7 c -1.2,-4.3 -10.5,-10.6 -17.9,-2.3 L 13.1,272.5 c -3.5,4.6 -2.6,11.1 2,14.6 1.9,1.4 9,4.6 14.6,-2 l 104.2,-136.8 31.6,76.5 c 5.9,10.8 16.3,5.6 18.3,1.9 L 283.5,79.6 Z"
           id="path9"
           style="fill:#ffffff;stroke:#575555;stroke-opacity:1" />
        <path
           d="m 358.7,164.5 c -69,0 -142.3,20.6 -142.3,58.8 v 191.4 c 0,38.2 73.3,58.8 142.3,58.8 70.7,0 142.3,-20.2 142.3,-58.8 V 223.3 c 0,-38.6 -71.6,-58.8 -142.3,-58.8 z m 121.4,250.2 c 0,15.5 -47.3,38 -121.5,38 -74.2,0 -121.5,-22.5 -121.5,-38 v -32.1 c 26.7,17.7 75.1,27.1 121.5,27.1 47.4,0 95.1,-9.1 121.5,-26.6 z m 0,-63.8 c 0,15.5 -47.3,38 -121.5,38 -74.2,0 -121.5,-22.5 -121.5,-38 v -32.1 c 26.7,17.7 75.1,27.1 121.5,27.1 47.4,0 95.1,-9.1 121.5,-26.6 z m 0,-63.8 c 0,15.5 -47.3,38 -121.5,38 -74.2,0 -121.5,-22.5 -121.5,-38 V 255 c 26.7,17.7 75.1,27.1 121.5,27.1 47.4,0 95.1,-9.1 121.5,-26.6 z M 358.7,261.3 c -74.2,0 -121.5,-22.5 -121.5,-38 0,-15.5 47.3,-38 121.5,-38 74.2,0 121.5,22.5 121.5,38 -0.1,15.5 -47.4,38 -121.5,38 z"
           id="path11"
           style="fill:#ffffff;stroke:#575555;stroke-opacity:1" />
        <path
           d="m 384.6,222.8 c -3.7,-2.4 -10.8,-4.4 -21.1,-5.9 v -13.7 c 4.2,1 6.7,2.9 7.7,5.6 l 16.3,-1.2 c -1.1,-3.5 -3.7,-6.3 -7.7,-8.4 -4,-2.1 -9.5,-3.4 -16.3,-3.8 v -3.5 h -9.3 v 3.5 c -7.4,0.4 -13.3,1.9 -17.8,4.5 -4.5,2.6 -6.7,5.8 -6.7,9.7 0,3.8 2,7 5.9,9.7 3.9,2.7 10.1,4.6 18.5,5.9 v 14.7 c -2.3,-0.6 -4.4,-1.6 -6.3,-2.9 -1.9,-1.4 -3.2,-3 -3.9,-4.8 l -16.8,1 c 1.3,4.6 4.3,8.2 8.9,10.7 4.6,2.5 10.7,4 18.1,4.5 v 6.4 h 9.3 v -6.6 c 8.4,-0.7 14.9,-2.4 19.6,-5.3 4.7,-2.9 7.1,-6.5 7.1,-10.7 0.1,-3.9 -1.8,-7 -5.5,-9.4 z m -30.5,-7.6 c -2.8,-0.7 -4.9,-1.5 -6.3,-2.6 -1.4,-1.1 -2.1,-2.2 -2.1,-3.5 0,-1.4 0.8,-2.6 2.3,-3.7 1.5,-1.1 3.5,-1.9 6.1,-2.4 z m 17.3,22.7 c -2,1.3 -4.6,2.1 -7.9,2.4 v -13.7 c 3.9,0.6 6.6,1.5 8.3,2.6 1.7,1.1 2.5,2.5 2.5,4 0.1,1.9 -0.9,3.4 -2.9,4.7 z"
           id="path13"
           style="fill:#ffffff;stroke:#575555;stroke-opacity:1" />
      </g>
    </g>
  </g>
</svg>
