<?xml version="1.0" encoding="UTF-8" standalone="no"?>
<!-- Created with Inkscape (http://www.inkscape.org/) -->

<svg
   version="1.1"
   id="svg368"
   width="512"
   height="512"
   viewBox="0 0 512 512"
   sodipodi:docname="index.svg"
   inkscape:version="1.2.1 (9c6d41e410, 2022-07-14)"
   xmlns:inkscape="http://www.inkscape.org/namespaces/inkscape"
   xmlns:sodipodi="http://sodipodi.sourceforge.net/DTD/sodipodi-0.dtd"
   xmlns="http://www.w3.org/2000/svg"
   xmlns:svg="http://www.w3.org/2000/svg">
  <defs
     id="defs372" />
  <sodipodi:namedview
     id="namedview370"
     pagecolor="#ffffff"
     bordercolor="#ffffff"
     borderopacity="1"
     inkscape:showpageshadow="0"
     inkscape:pageopacity="0"
     inkscape:pagecheckerboard="1"
     inkscape:deskcolor="#ffffff"
     showgrid="false"
     inkscape:zoom="1.1670024"
     inkscape:cx="88.688763"
     inkscape:cy="296.48611"
     inkscape:window-width="1920"
     inkscape:window-height="1011"
     inkscape:window-x="0"
     inkscape:window-y="32"
     inkscape:window-maximized="0"
     inkscape:current-layer="g374" />
  <g
     inkscape:groupmode="layer"
     inkscape:label="Image"
     id="g374">
    <path
       style="fill:#ffffff;stroke:none"
       d="M 399.65006,6.1189901 V 22.118991 h 76 l -97,96.999999 -27,27 c -3.947,3.947 -8.586,10.444 -14,12.365 -6.076,2.155 -12.343,-6.711 -16,-10.365 l -30,-29.996 c -3.152,-3.134 -7.888,-9.466 -13,-8.559 -8.756,1.553 -18.939,16.494 -25,22.555 l -47,47 c -6.359,6.359 -13.634,16.738 -22,20.382 -7.093,3.089 -16.061,-2.508 -24,0.059 -7.237,2.34 -14.385,13.798 -21.911,13.035 -10.576,-1.072 -15.318,-14.721 -28.089,-14.134 -10.47199,0.482 -19.161493,15.379 -27.999993,13.938 -11.1298,-1.815 -15.6809,-14.745 -29,-13.984 -17.8893,1.022 -31.9952,17.895 -29.52,35.704 1.3454,9.679 7.2089,17.397 12.8965,25 10.602,14.172 22.24,27.984 31.6235,43 -26.862,16.159 -51.1706,44.027 -58.244799,75 -14.3813202,62.965 33.535499,124.122 98.244792,124.982 22.49,0.299 41.16,-5.97 61,-15.982 9.939,24.333 49.836,16 71,16 h 192 c 18.871,0 54.566,7.145 66.702,-11.044 10.238,-15.343 -0.713,-30.526 0.606,-45.956 0.853,-9.978 4.013,-18.562 3.631,-29 -0.227,-6.217 -3.677,-11.958 -3.677,-18 0,-9.538 3.945,-18.926 3.703,-29 -0.158,-6.583 -3.703,-12.64 -3.703,-19 0,-18.669 13.254,-47.152 -14.262,-54.86 -4.546,-1.273 -9.324,-1.13 -14,-1.14 v -160 h -64 v 160 h -16 v -80 h -64 v 80 l -16,1 v -113 h -64 v 160 c -13.715,0 -36.23,4.332 -48.854,-1.175 -5.842,-2.549 -9.788,-9.366 -14.204,-13.735 -8.948,-8.854 -19.139,-18.591 -29.942,-25.09 12.123,-19.4 29.743,-35.807 40.501,-56 2.931,-5.503 4.665,-11.734 4.23,-18 -0.337,-4.851 -3.174,-10.268 -1.113,-15 2.544,-5.84 8.968,-10.586 13.382,-15 l 29,-29 27,-26.998 c 3.014,-3.001 7.279,-8.748 12,-8.748 5.055,0 9.78,6.533 13,9.747 l 29,28.999 c 3.685,3.68 9.886,12.396 16,10.279 5.427,-1.879 10.06,-8.339 14,-12.279 l 30,-30 106,-105.999999 v 75.999999 h 16 V 6.1189901 h -104 m 56,143.9999999 v 144 h -32 v -144 h 32 m -160,48 v 144 h -32 v -144 h 32 m -242.997693,16.74 c 10.4871,-1.479 17.5741,12.803 27.9977,14.525 14.028,2.318 19.549003,-14.757 31.055993,-14.263 10.513,0.451 15.927,14.523 27.944,14.515 13.351,-0.009 22.882,-20.751 35.914,-12.987 7.578,4.514 9.504,13.835 5.714,21.47 -7.09,14.283 -19.698,27.261 -29.253,40 -4.291,5.721 -8.758,14.256 -16.41,15.651 -11.661,2.127 -25.12,0.351 -36.964993,0.349 -5.0942,-10e-4 -11.2082,0.797 -15.6681,-2.175 -9.0323,-6.019 -15.7541,-19.221 -22.2069,-27.825 -6.5908,-8.788 -17.5495,-19.14 -20.2623,-30 -2.0828,-8.339 3.2409,-18.006 12.1396,-19.26 m 322.997693,15.26 v 64 h -32 v -64 h 32 m -292.999993,81.143 c 8.0269,-3.115 19.502003,-1.143 27.999993,-1.143 9.046,0 21.465,-2.17 30,1.143 8.595,3.336 16.192,12.413 22.999,18.433 13.286,11.752 24.798,24.474 30.88,41.424 15.362,42.815 -5.873,92.571 -48.879,109.135 -64.132993,24.7 -135.8368922,-29.711 -119.813493,-99.135 4.6962,-20.347 16.4268,-35.987 31.8179,-49.665 7.3444,-6.528 15.7125,-16.589 24.9956,-20.192 m 244.999993,-1.143 v 16 h 16 v -16 h 16 v 16 h 16 v -16 h 16 v 16 h 16 v -16 h 16 v 16 h 16 v -16 h 16 v 16 h 16 v -16 c 4.637,0.027 10.521,-0.454 13.731,3.62 5.027,6.381 4.155,25.311 -4.821,27.76 -11.882,3.24 -27.623,0.62 -39.91,0.62 h -85 c -9.973,0 -32.252,4.136 -40.38,-2.269 -5.561,-4.384 -5.601,-21.94 -0.716,-26.827 3.343,-3.345 8.757,-2.879 13.096,-2.904 m -223.99999,32 v 16 H 79.650067 c 0,14.08 -3.1456,32.228 9.1342,42.293 13.881803,11.378 38.582793,-2.741 38.865793,21.707 -10.906,0 -26.09999,3.362 -31.999993,-8 h -16 c 1.8741,13.637 10.3631,22.126 24.000003,24 v 16 h 15.99999 v -16 h 24 c 0,-14.08 3.146,-32.228 -9.134,-42.293 -13.882,-11.378 -38.582893,2.741 -38.865993,-21.707 10.905993,0 26.099993,-3.362 31.999993,8 h 16 c -1.874,-13.637 -10.363,-22.126 -24,-24 v -16 h -15.99999 m 127.99999,16 v 16 h 16 v -16 h 16 v 16 h 16 v -16 h 16 v 16 h 16 v -16 h 16 v 16 h 16 v -16 c 4.637,0.027 10.521,-0.454 13.731,3.62 5.027,6.381 4.155,25.311 -4.821,27.76 -13.025,3.552 -30.432,0.62 -43.91,0.62 h -94 l -8,-32 h 25 m 160,0 v 16 h 16 v -16 h 16 v 16 h 16 v -16 h 16 v 16 h 16 v -16 c 4.637,0.027 10.521,-0.454 13.731,3.62 5.027,6.381 4.155,25.311 -4.821,27.76 -10.165,2.772 -23.41,0.62 -33.91,0.62 h -72 v -32 h 17 m -160,48 v 16 h 16 v -16 h 16 v 16 h 16 v -16 h 16 v 16 h 16 v -16 h 16 v 16 h 16 v -16 c 4.637,0.027 10.521,-0.454 13.731,3.62 5.027,6.381 4.155,25.311 -4.821,27.76 -13.596,3.708 -31.837,0.62 -45.91,0.62 h -98 l 8.265,-30.373 14.735,-1.627 m 160,0 v 16 h 16 v -16 h 16 v 16 h 16 v -16 h 16 v 16 h 16 v -16 c 4.637,0.027 10.521,-0.454 13.731,3.62 5.027,6.381 4.155,25.311 -4.821,27.76 -10.165,2.772 -23.41,0.62 -33.91,0.62 h -72 v -32 h 17 m -160,48 v 16 h 16 v -16 h 16 v 16 h 16 v -16 h 16 v 16 h 16 v -16 h 16 v 16 h 16 v -16 c 4.637,0.027 10.521,-0.454 13.731,3.62 5.027,6.381 4.155,25.311 -4.821,27.76 -11.882,3.24 -27.623,0.62 -39.91,0.62 h -85 c -9.573,0 -33.947,4.341 -41.089,-2.904 -7.777,-7.888 7.803,-21.907 13.089,-27.096 v 14 h 16 v -16 h 16 m 160,0 v 16 h 16 v -16 h 16 v 16 h 16 v -16 h 16 v 16 h 16 v -16 c 4.637,0.027 10.521,-0.454 13.731,3.62 5.027,6.381 4.155,25.311 -4.821,27.76 -10.165,2.772 -23.41,0.62 -33.91,0.62 h -72 v -32 z"
       id="path378" />
  </g>
</svg>
